<?xml version="1.0" standalone="no"?>
<!DOCTYPE svg PUBLIC "-//W3C//DTD SVG 20010904//EN"
 "http://www.w3.org/TR/2001/REC-SVG-20010904/DTD/svg10.dtd">
<svg version="1.0" xmlns="http://www.w3.org/2000/svg"
 width="500.000000pt" height="185.000000pt" viewBox="0 0 500.000000 185.000000"
 preserveAspectRatio="xMidYMid meet">

<g transform="translate(0.000000,185.000000) scale(0.100000,-0.100000)"
fill="#000000" stroke="none">
<path d="M703 1829 c-122 -38 -220 -161 -243 -305 -14 -88 11 -227 56 -317 13
-23 13 -34 0 -80 -8 -28 -17 -64 -20 -79 l-6 -28 -38 20 c-119 62 -291 35
-373 -58 -56 -63 -74 -116 -74 -212 1 -95 20 -147 79 -208 51 -55 100 -75 198
-80 76 -4 92 -1 140 20 30 14 70 39 89 56 l35 31 27 -54 c14 -30 51 -83 80
-118 40 -46 57 -75 62 -106 11 -65 62 -156 112 -201 221 -195 586 -116 718
155 32 65 56 166 54 225 -1 14 -7 -13 -15 -60 -37 -223 -181 -373 -394 -411
-204 -36 -416 89 -449 264 -4 26 -6 47 -4 47 2 0 23 -11 46 -24 161 -94 390
-88 522 12 53 40 109 122 127 187 18 65 15 183 -5 242 -10 29 -22 55 -26 57
-4 3 0 -18 10 -47 37 -107 18 -266 -42 -354 -82 -118 -263 -179 -432 -144 -65
14 -196 76 -204 97 -3 8 -1 38 4 68 6 30 7 60 3 67 -16 24 -30 -4 -30 -59 l-1
-57 -44 50 c-25 27 -60 79 -79 115 l-33 65 18 40 c45 98 30 234 -35 325 l-35
48 15 63 c8 35 17 65 19 67 2 2 29 -23 59 -55 30 -33 75 -70 99 -83 l44 -23 6
-151 c7 -165 20 -227 62 -282 129 -169 480 -143 571 42 27 55 27 65 11 211 -1
12 -13 34 -27 49 l-25 27 24 -13 c13 -7 43 -30 66 -51 35 -32 44 -48 49 -87 8
-57 45 -137 83 -177 46 -48 98 -68 194 -73 78 -4 92 -2 147 23 33 15 74 41 90
58 68 70 95 189 68 295 -36 143 -135 217 -286 215 -149 -3 -257 -86 -290 -224
l-12 -50 -27 24 c-39 37 -107 76 -174 102 l-60 22 53 18 c75 25 160 109 189
188 78 212 -60 416 -302 446 -49 6 -50 6 -61 51 -16 62 -48 112 -93 143 -86
59 -180 71 -290 36z m195 -4 c96 -29 165 -101 179 -189 l6 -36 -40 0 c-98 0
-236 -59 -325 -138 -55 -50 -125 -144 -159 -214 -12 -26 -26 -45 -30 -42 -5 3
-20 41 -34 85 -33 105 -34 218 -3 310 17 52 33 76 88 131 55 55 76 69 130 86
79 25 121 27 188 7z m180 -280 c-6 -53 -38 -102 -85 -135 -39 -27 -134 -49
-205 -50 -39 0 -48 -3 -48 -17 1 -45 12 -48 187 -54 190 -6 230 -17 263 -71
39 -64 15 -188 -43 -220 -12 -7 -60 -15 -107 -18 l-85 -5 0 -40 0 -40 95 -5
c104 -6 146 -22 184 -73 18 -24 21 -43 21 -117 0 -74 -3 -93 -21 -117 -30 -41
-88 -66 -153 -66 -91 0 -155 46 -187 133 -13 35 -18 98 -23 288 -6 241 -6 244
-30 263 -14 11 -39 19 -62 19 l-39 0 0 -111 0 -110 -41 23 c-55 30 -149 133
-149 161 0 30 66 148 115 206 101 120 246 197 374 200 l44 1 -5 -45z m174 15
c111 -41 190 -143 204 -260 13 -114 -51 -244 -146 -298 l-45 -26 27 30 c35 38
48 74 48 135 0 62 -18 105 -61 146 -54 51 -101 66 -229 72 l-115 6 40 22 c67
35 105 90 119 167 l7 39 47 -6 c26 -3 73 -15 104 -27z m-842 -607 c90 -95 75
-323 -25 -382 -73 -44 -144 -34 -198 30 -46 53 -61 110 -55 208 5 90 25 133
79 169 29 20 43 23 98 20 59 -4 66 -7 101 -45z m1470 0 c90 -95 75 -323 -25
-382 -73 -44 -144 -34 -198 30 -46 53 -61 110 -55 208 5 90 25 133 79 169 29
20 43 23 98 20 59 -4 66 -7 101 -45z"/>
<path d="M2160 949 c0 -178 4 -319 10 -341 14 -48 55 -97 97 -114 36 -15 170
-19 192 -5 9 6 11 18 7 34 -6 25 -9 26 -67 24 -56 -1 -64 1 -85 26 -24 28 -24
32 -24 223 l0 194 90 0 90 0 0 35 0 35 -89 0 -88 0 -5 71 c-6 84 -24 108 -87
116 l-41 6 0 -304z"/>
<path d="M3580 1213 c-36 -46 -116 -100 -200 -134 -77 -32 -80 -34 -80 -66 0
-38 -6 -37 89 -17 135 28 221 -15 221 -110 l0 -43 -97 -5 c-149 -7 -226 -47
-259 -134 -25 -67 -12 -129 37 -176 45 -42 81 -52 174 -46 53 3 73 10 110 36
25 17 45 27 45 22 0 -25 41 -50 81 -50 l41 0 -4 218 c-3 210 -4 218 -28 262
-30 54 -87 88 -159 97 l-50 6 57 34 c56 33 142 109 142 125 0 4 -22 8 -49 8
-42 0 -53 -4 -71 -27z m30 -503 c0 -34 -7 -74 -15 -90 -37 -71 -152 -98 -203
-46 -22 22 -27 35 -26 76 1 84 51 119 172 120 l72 0 0 -60z"/>
<path d="M2999 1070 c-96 -16 -174 -76 -215 -165 -30 -62 -33 -185 -7 -260 23
-67 86 -129 154 -149 62 -19 171 -21 234 -5 41 10 44 13 39 38 -9 38 -17 43
-48 31 -38 -14 -121 -13 -159 4 -72 31 -109 103 -110 218 -1 143 64 217 190
218 34 0 73 -4 87 -10 25 -9 26 -8 26 29 0 39 0 39 -50 50 -56 12 -74 12 -141
1z"/>
<path d="M4649 1070 c-96 -17 -174 -77 -215 -165 -19 -39 -24 -67 -24 -131 0
-70 4 -89 31 -142 51 -102 136 -152 259 -152 123 0 222 56 272 154 29 56 36
174 14 248 -39 135 -183 215 -337 188z m141 -92 c52 -36 74 -89 79 -187 5
-135 -27 -203 -113 -236 -78 -30 -155 6 -197 92 -34 71 -34 199 1 267 31 60
75 86 146 86 36 0 60 -6 84 -22z"/>
<path d="M3955 1055 c-49 -17 -102 -76 -112 -124 -5 -20 -8 -126 -8 -236 l0
-200 63 -3 62 -3 0 225 c0 223 0 225 24 253 22 25 31 28 85 28 l61 -1 0 32 c0
24 -5 33 -22 38 -39 10 -111 6 -153 -9z"/>
<path d="M2540 775 l0 -286 63 3 62 3 3 283 2 282 -65 0 -65 0 0 -285z"/>
<path d="M4190 775 l0 -285 60 0 60 0 0 285 0 285 -60 0 -60 0 0 -285z"/>
</g>
</svg>
