<?xml version="1.0" standalone="no"?>
<!DOCTYPE svg PUBLIC "-//W3C//DTD SVG 20010904//EN"
 "http://www.w3.org/TR/2001/REC-SVG-20010904/DTD/svg10.dtd">
<svg version="1.0" xmlns="http://www.w3.org/2000/svg"
 width="225.000000pt" height="225.000000pt" viewBox="0 0 225.000000 225.000000"
 preserveAspectRatio="xMidYMid meet">

<g transform="translate(0.000000,225.000000) scale(0.100000,-0.100000)"
fill="#000000" stroke="none">
<path d="M0 1125 l0 -1125 1125 0 1125 0 0 1125 0 1125 -1125 0 -1125 0 0
-1125z m1048 317 c9 7 13 8 9 2 -4 -7 0 -17 9 -25 8 -7 14 -22 13 -33 0 -12 0
-23 1 -26 8 -17 6 -50 -4 -47 -6 2 -10 14 -9 26 2 11 -2 21 -8 21 -6 0 -8 9
-4 20 4 11 2 20 -4 20 -6 0 -8 7 -4 15 3 9 2 15 -3 14 -5 -1 -20 -1 -34 1 -23
1 -23 2 -5 9 11 5 22 4 23 -1 2 -5 11 -3 20 4z m119 -8 c-3 -3 -12 -4 -19 -1
-8 3 -5 6 6 6 11 1 17 -2 13 -5z m67 -131 c-27 -20 -134 -16 -134 6 0 3 20 5
45 3 50 -4 70 7 88 48 11 25 11 25 15 -10 2 -24 -2 -38 -14 -47z m-106 -245
l3 -116 -51 -7 c-53 -7 -80 4 -80 33 0 13 3 13 19 -2 11 -10 30 -16 43 -14 21
3 23 9 26 61 2 35 -2 64 -9 73 -9 11 -8 14 5 14 9 0 15 3 15 8 -5 32 3 73 14
70 8 -3 13 -39 15 -120z m176 28 c19 -19 25 -33 23 -56 -5 -40 -17 -51 -17
-14 0 39 -25 74 -53 74 -32 0 -43 -10 -62 -55 -14 -30 -19 -35 -22 -22 -8 32
6 66 35 81 39 22 65 19 96 -8z m176 9 c0 -10 -9 -15 -27 -15 -45 0 -63 -3 -63
-12 0 -4 4 -8 8 -8 5 0 8 -10 6 -22 -1 -13 -3 -33 -3 -45 -1 -13 -5 -23 -11
-23 -6 0 -10 26 -10 58 l0 58 38 11 c54 15 62 15 62 -2z m76 0 c-11 -8 -25
-15 -30 -15 -6 1 0 7 14 15 32 19 40 18 16 0z m-893 -2 c-17 -3 -23 -12 -24
-31 -1 -17 -3 -21 -6 -9 -2 9 -8 17 -13 17 -4 0 -10 7 -14 15 -4 12 3 15 37
14 23 -1 32 -4 20 -6z m264 1 c-3 -3 -12 -4 -19 -1 -8 3 -5 6 6 6 11 1 17 -2
13 -5z m698 -144 c-3 -5 -18 -9 -33 -9 l-27 1 30 8 c17 4 31 8 33 9 2 0 0 -3
-3 -9z m-358 -6 c-3 -3 -12 -4 -19 -1 -8 3 -5 6 6 6 11 1 17 -2 13 -5z"/>
</g>
</svg>
