<?xml version="1.0" standalone="no"?>
<!DOCTYPE svg PUBLIC "-//W3C//DTD SVG 20010904//EN"
 "http://www.w3.org/TR/2001/REC-SVG-20010904/DTD/svg10.dtd">
<svg version="1.0" xmlns="http://www.w3.org/2000/svg"
 width="612.000000pt" height="612.000000pt" viewBox="0 0 612.000000 612.000000"
 preserveAspectRatio="xMidYMid meet">

<g transform="translate(0.000000,612.000000) scale(0.100000,-0.100000)"
fill="#000000" stroke="none">
<path d="M0 3060 l0 -3060 3060 0 3060 0 0 3060 0 3060 -3060 0 -3060 0 0
-3060z m2927 918 c-3 -8 -6 -5 -6 6 -1 11 2 17 5 13 3 -3 4 -12 1 -19z m-42
-48 c-3 -5 -12 -7 -20 -3 -21 7 -19 13 6 13 11 0 18 -4 14 -10z m253 -7 c59
-5 88 -23 38 -23 -36 0 -130 22 -141 33 -6 6 -1 7 15 3 14 -4 53 -10 88 -13z
m-338 -3 c0 -5 -6 -7 -14 -4 -27 11 -27 -16 1 -28 15 -7 33 -20 40 -28 21 -27
5 -23 -34 9 -28 23 -48 31 -77 31 -45 0 -39 16 9 23 56 8 75 7 75 -3z m95 -46
c28 -33 52 -114 33 -114 -4 0 -8 -16 -8 -35 0 -19 -5 -35 -11 -35 -5 0 -7 -5
-4 -10 4 -6 14 -9 23 -8 10 2 24 -11 37 -35 30 -55 72 -72 181 -72 82 0 94 3
132 28 40 26 76 82 84 131 2 11 9 21 16 24 9 3 12 -20 12 -91 0 -106 0 -106
-75 -132 -61 -22 -249 -26 -280 -6 -17 10 -12 12 33 7 66 -6 69 9 2 18 -27 4
-50 11 -50 16 0 5 -8 7 -17 4 -15 -5 -16 -4 -3 5 13 9 13 11 -2 11 -9 0 -20 9
-23 20 -3 11 -10 20 -15 20 -4 0 -10 9 -13 20 -4 14 -14 20 -35 20 -22 0 -29
4 -28 18 0 9 8 20 16 24 11 5 9 7 -7 7 -18 1 -23 -4 -23 -26 0 -45 -11 -18
-16 39 -3 29 -7 59 -9 66 -2 6 1 12 7 12 7 0 6 5 -2 15 -7 9 -10 18 -7 21 3 3
1 18 -4 33 l-9 26 23 -28 c22 -26 37 -27 37 -4 0 6 -3 7 -7 4 -6 -7 -32 21
-33 36 0 16 17 5 45 -29z m192 10 c-3 -3 -12 -4 -19 -1 -8 3 -5 6 6 6 11 1 17
-2 13 -5z m-187 -264 c0 -5 -5 -10 -11 -10 -5 0 -7 5 -4 10 3 6 8 10 11 10 2
0 4 -4 4 -10z m35 -39 c3 -11 22 -26 43 -35 20 -8 31 -15 24 -15 -24 -1 -77
28 -90 49 -10 17 -10 20 2 20 8 0 17 -9 21 -19z m133 -711 l2 -326 -62 -1
c-35 0 -88 -4 -119 -8 -63 -8 -112 3 -154 37 -21 16 -23 23 -14 34 7 8 12 28
11 44 0 17 1 30 3 30 2 0 14 -18 26 -40 17 -29 32 -43 58 -50 59 -16 98 -12
128 14 27 23 28 29 31 126 5 131 -2 163 -44 209 -37 41 -32 51 22 51 21 0 24
5 25 38 0 20 3 51 5 67 3 17 6 47 7 68 2 37 3 38 37 35 l35 -3 3 -325z m-212
133 c-3 -4 -13 -8 -20 -9 -7 -1 -23 -5 -35 -9 -22 -7 -30 10 -8 18 19 8 71 8
63 0z m658 -19 c55 -31 82 -63 98 -117 10 -34 10 -41 -5 -52 -22 -16 -22 -31
1 -44 15 -9 15 -10 -5 -11 -12 0 -23 -6 -26 -12 -4 -14 -27 55 -27 83 0 23
-36 92 -58 113 -30 26 -95 39 -124 23 -62 -33 -77 -50 -98 -110 -12 -34 -26
-69 -31 -77 -5 -8 -13 -25 -19 -37 -24 -55 -62 7 -46 74 10 42 46 109 70 132
70 65 188 81 270 35z m511 10 c10 -10 13 -24 9 -38 -11 -36 -21 -40 -61 -23
-42 18 -173 22 -173 5 0 -6 11 -8 25 -6 26 5 34 -6 13 -19 -7 -4 -13 -14 -13
-22 0 -8 -6 -16 -14 -19 -9 -3 -11 1 -7 15 4 13 0 25 -11 34 -15 12 -16 12
-10 -4 4 -10 2 -27 -3 -37 -8 -16 -8 -18 5 -14 10 4 15 0 15 -12 0 -16 2 -16
10 -4 5 8 10 12 12 10 7 -10 -4 -170 -11 -166 -4 3 -16 -12 -27 -32 l-19 -37
-2 45 c-8 147 -7 318 2 310 14 -15 75 -10 130 10 63 23 109 25 130 4z m283 10
c-4 -3 -21 -8 -40 -11 -18 -2 -52 -15 -75 -28 -43 -24 -58 -20 -27 6 29 24 67
37 108 38 22 1 37 -2 34 -5z m-2413 -11 c-16 -3 -35 -9 -41 -14 -7 -5 -35 -12
-63 -16 l-51 -6 -1 -53 c-2 -67 -2 -71 -11 -80 -9 -8 -11 6 -8 47 0 14 -6 31
-14 39 -13 10 -16 10 -16 -4 0 -29 -18 -17 -24 17 -4 23 -15 38 -32 46 -51 23
-13 31 139 30 84 -1 139 -4 122 -6z m125 -8 c10 -12 10 -15 -2 -15 -8 0 -18 4
-23 9 -6 5 -23 11 -40 14 -25 3 -23 4 11 6 26 0 46 -5 54 -14z m173 8 c-7 -2
-19 -2 -25 0 -7 3 -2 5 12 5 14 0 19 -2 13 -5z m325 -18 c3 -16 1 -18 -9 -7
-7 6 -21 12 -31 12 -10 0 -18 5 -18 11 0 20 55 5 58 -16z m1942 15 c-19 -13
-30 -13 -30 0 0 6 10 10 23 10 18 0 19 -2 7 -10z m-355 -139 c3 -5 1 -12 -5
-16 -5 -3 -10 1 -10 9 0 18 6 21 15 7z m-2232 -48 c26 -3 50 -9 53 -14 3 -5
-8 -7 -23 -4 -15 2 -49 7 -75 10 -26 3 -51 11 -54 17 -5 7 2 9 22 4 16 -4 50
-9 77 -13z m-163 -43 c0 -5 -2 -10 -4 -10 -3 0 -8 5 -11 10 -3 6 -1 10 4 10 6
0 11 -4 11 -10z m30 -20 c0 -5 -4 -10 -10 -10 -5 0 -10 5 -10 10 0 6 5 10 10
10 6 0 10 -4 10 -10z m-3 -62 c-3 -8 -6 -5 -6 6 -1 11 2 17 5 13 3 -3 4 -12 1
-19z m1773 -73 c-24 -25 -45 -36 -77 -41 -26 -4 -49 -2 -54 3 -7 7 7 12 40 15
34 3 61 14 83 31 45 36 48 33 8 -8z m992 -46 c2 -8 -3 -12 -12 -10 -82 21 -78
19 -49 20 27 1 38 16 40 54 1 19 8 -3 21 -64z m-2742 50 c0 -6 -4 -7 -10 -4
-5 3 -10 11 -10 16 0 6 5 7 10 4 6 -3 10 -11 10 -16z m2640 -19 c0 -5 -9 -14
-19 -20 -26 -13 -114 -13 -106 0 3 6 23 10 43 10 20 0 44 5 52 10 19 12 30 13
30 0z m-2571 -16 c2 -2 -7 -4 -22 -4 -14 0 -29 5 -32 10 -6 10 42 4 54 -6z
m550 0 c2 -2 -16 -4 -42 -4 -25 0 -48 4 -51 9 -5 8 84 3 93 -5z m1811 6 c0 -5
-2 -10 -4 -10 -3 0 -8 5 -11 10 -3 6 -1 10 4 10 6 0 11 -4 11 -10z"/>
<path d="M2901 3824 c0 -11 3 -14 6 -6 3 7 2 16 -1 19 -3 4 -6 -2 -5 -13z"/>
<path d="M2879 3808 c-1 -2 -3 -20 -4 -40 -3 -34 -1 -38 18 -38 18 1 19 2 6
10 -10 6 -15 21 -14 40 1 25 -2 39 -6 28z"/>
<path d="M2900 3779 c0 -11 4 -18 10 -14 5 3 7 12 3 20 -7 21 -13 19 -13 -6z"/>
</g>
</svg>
