<?xml version="1.0" standalone="no"?>
<!DOCTYPE svg PUBLIC "-//W3C//DTD SVG 20010904//EN"
 "http://www.w3.org/TR/2001/REC-SVG-20010904/DTD/svg10.dtd">
<svg version="1.0" xmlns="http://www.w3.org/2000/svg"
 width="1600.000000pt" height="853.000000pt" viewBox="0 0 1600.000000 853.000000"
 preserveAspectRatio="xMidYMid meet">

<g transform="translate(0.000000,853.000000) scale(0.100000,-0.100000)"
fill="#000000" stroke="none">
<path d="M0 4265 l0 -4265 8000 0 8000 0 0 4265 0 4265 -8000 0 -8000 0 0
-4265z m8758 2649 c42 -9 84 -17 93 -19 61 -12 210 -108 280 -182 158 -163
238 -410 226 -692 -6 -136 -55 -399 -92 -494 -6 -13 23 -2 106 40 120 62 256
119 305 127 16 3 61 12 99 21 174 37 361 5 445 -76 76 -74 105 -185 81 -310
-17 -85 -99 -249 -170 -339 -65 -83 -233 -249 -326 -323 -60 -47 -220 -156
-313 -212 l-50 -30 62 -13 c33 -7 70 -15 81 -17 32 -7 65 -52 65 -90 0 -57
-17 -84 -106 -171 -91 -90 -176 -142 -357 -221 -117 -51 -136 -56 -295 -88
-213 -43 -393 -43 -564 1 l-57 14 -64 -40 c-35 -22 -73 -42 -83 -44 -11 -3
-55 -13 -99 -25 -360 -92 -874 -23 -1084 147 -55 45 -91 118 -91 187 l0 51
-47 12 c-26 7 -61 19 -78 27 -16 8 -64 27 -105 44 -41 16 -113 47 -160 69
-396 185 -697 456 -755 678 -28 109 3 180 98 228 99 50 230 47 423 -10 49 -14
100 -28 113 -30 13 -3 32 -9 42 -14 32 -17 29 -11 -30 71 -73 101 -175 271
-196 324 -8 22 -20 48 -26 58 -21 37 -70 181 -75 220 -2 22 -9 61 -15 86 -14
60 -15 255 -1 306 6 22 13 52 16 67 16 95 139 247 244 303 107 57 149 65 302
62 114 -3 146 -8 205 -29 166 -61 298 -138 400 -232 39 -36 73 -66 76 -66 4 0
43 -42 88 -92 46 -51 95 -106 110 -123 16 -16 58 -74 95 -128 36 -54 66 -94
66 -90 1 27 45 211 71 297 74 243 218 467 379 591 67 52 233 142 275 149 17 3
59 12 95 20 88 19 205 19 298 0z m-1058 -3814 l0 -240 131 0 132 0 -6 -67 c-4
-38 -7 -80 -7 -95 l0 -28 -115 0 -116 0 3 -409 3 -409 31 -38 c69 -86 97 -99
217 -103 l37 -1 0 -56 0 -56 -142 5 c-94 3 -161 10 -195 21 -103 33 -192 126
-234 245 l-24 66 -3 703 -3 702 146 0 145 0 0 -240z m-2457 -225 c154 -36 296
-117 365 -209 45 -59 86 -126 78 -126 -3 0 4 -21 14 -46 19 -42 20 -70 20
-380 l0 -334 -149 0 -150 0 -3 373 c-3 409 -3 405 -69 488 -41 52 -100 85
-188 105 -73 17 -77 16 -204 -11 -57 -12 -140 -84 -175 -151 -23 -44 -26 -89
-29 -436 l-4 -358 -146 0 -146 0 7 365 c6 359 7 366 31 421 28 63 151 191 216
224 48 25 161 66 214 79 64 15 247 13 318 -4z m1515 -38 c45 -17 44 -17 66
-17 25 0 190 -116 222 -156 17 -22 43 -63 58 -92 50 -99 56 -150 56 -494 l0
-318 -145 0 -145 0 0 323 c0 190 -4 348 -11 382 -25 134 -119 249 -222 271
-33 7 -137 7 -177 -1 -50 -9 -137 -63 -176 -111 -40 -49 -79 -147 -88 -226
-10 -76 17 -214 56 -297 56 -118 170 -201 276 -201 33 0 167 25 245 45 l27 7
0 -59 0 -60 -52 -25 c-161 -79 -392 -77 -552 4 -129 65 -203 152 -248 290 -74
228 -38 430 100 574 69 72 185 135 299 164 99 24 341 23 411 -3z m1695 -184
c4 -108 7 -269 7 -357 0 -158 1 -162 30 -223 72 -154 239 -233 393 -188 119
35 186 103 233 233 23 63 24 73 24 393 l0 329 135 0 135 0 0 -347 c0 -210 -4
-363 -10 -385 -6 -21 -11 -40 -10 -43 3 -25 -114 -161 -187 -217 -26 -20 -79
-48 -90 -48 -5 0 -35 -9 -68 -20 -200 -65 -440 -38 -647 72 -81 43 -179 148
-208 223 -26 67 -28 96 -33 528 l-2 247 146 0 146 0 6 -197z m1783 186 l44
-11 0 -47 0 -47 -59 -1 c-136 -1 -224 -62 -260 -178 -19 -61 -21 -93 -21 -329
0 -143 -3 -312 -7 -374 l-6 -113 -130 3 -129 3 1 393 c1 435 1 432 71 536 31
46 141 146 161 146 5 0 11 1 14 1 94 30 241 38 321 18z m879 -34 c82 -21 190
-74 251 -122 57 -46 141 -163 148 -208 3 -16 10 -54 16 -84 5 -29 10 -193 10
-363 l0 -309 -142 3 -143 3 -6 355 c-4 195 -9 370 -12 389 -14 74 -102 176
-184 213 -123 54 -284 14 -379 -95 -66 -76 -86 -136 -89 -267 -1 -63 0 -119 3
-125 3 -5 7 -22 9 -39 5 -47 84 -185 127 -222 76 -65 188 -82 331 -50 39 9 85
18 103 20 l32 3 0 -51 c0 -61 -17 -78 -115 -116 -49 -19 -83 -23 -188 -25
-155 -4 -220 10 -323 66 -96 53 -163 120 -202 201 -50 105 -56 134 -57 278 0
146 6 194 32 243 22 43 94 131 135 165 18 15 41 34 50 42 31 27 194 89 274
105 93 17 230 13 319 -10z"/>
<path d="M8555 6463 c-146 -32 -259 -115 -377 -274 -60 -82 -169 -329 -182
-416 -4 -21 -11 -51 -16 -68 -5 -16 -16 -66 -26 -110 -40 -193 -114 -276 -239
-271 -112 4 -194 73 -284 237 -118 213 -288 412 -428 503 -74 48 -146 86 -172
91 -9 2 -36 8 -61 14 -110 26 -231 3 -300 -57 -23 -19 -53 -61 -72 -100 -31
-63 -33 -74 -32 -167 1 -86 5 -113 34 -195 69 -197 191 -371 424 -602 89 -89
117 -123 127 -156 11 -39 10 -45 -8 -70 -47 -63 -145 -68 -304 -13 -166 58
-303 85 -434 85 -127 1 -175 -15 -196 -66 -11 -26 -9 -35 10 -74 48 -100 198
-225 380 -318 113 -57 266 -124 297 -130 11 -2 75 -23 144 -46 82 -28 148 -43
195 -46 109 -7 132 -13 165 -40 43 -37 43 -93 -1 -136 -43 -44 -52 -72 -35
-112 16 -39 60 -68 153 -100 272 -96 633 -45 788 110 l46 46 102 -21 c211 -44
594 -48 747 -7 122 33 223 80 272 127 27 25 48 54 48 66 0 53 -74 92 -205 108
-82 10 -125 27 -151 59 -32 37 -27 76 14 119 33 35 62 50 127 66 61 15 211 78
330 138 383 194 644 511 551 669 -53 89 -186 100 -395 33 -106 -33 -276 -113
-391 -183 -155 -94 -195 -110 -297 -113 -90 -2 -93 -2 -121 27 -63 63 -48 143
61 320 52 83 117 240 149 358 16 58 21 109 22 202 1 136 -9 180 -66 296 -37
77 -139 177 -193 190 -5 2 -35 10 -65 18 -54 15 -95 18 -135 9z"/>
</g>
</svg>
